<svg t="1597236825483" class="icon" viewBox="0 0 1062 1024" version="1.1" xmlns="http://www.w3.org/2000/svg" p-id="6319" width="16" height="16"><path d="M531.156857 684.290381a140.706458 140.706458 0 1 1 140.706458-140.706458 36.613076 36.613076 0 0 1-73.226153 0 66.812183 66.812183 0 1 0-66.812183 66.812183 36.613076 36.613076 0 0 1 0 73.226153z" fill="#FF4B9D" p-id="6320"></path><path d="M881.119073 1023.696272a36.345828 36.345828 0 0 1-35.410457-27.793868L764.865874 668.121833a69.351046 69.351046 0 0 1 22.716142-69.885544l190.94922-161.685484a28.729239 28.729239 0 0 0 9.086457-31.668974A28.996488 28.996488 0 0 0 962.095439 384.570927l-249.743941-18.306538a69.083797 69.083797 0 0 1-59.462843-43.160671L558.549852 91.666315a29.530985 29.530985 0 0 0-54.78599 0l-94.338803 231.437403a69.083797 69.083797 0 0 1-59.462843 43.160671L100.752772 384.570927a29.530985 29.530985 0 0 0-16.970294 51.979878l190.94922 161.284611a69.083797 69.083797 0 0 1 22.716142 70.286417l-59.730092 242.260976a29.664609 29.664609 0 0 0 44.36329 32.203472L494.410156 810.832656a69.484671 69.484671 0 0 1 73.493402 0h1.068995L714.222239 908.645692a36.613076 36.613076 0 1 1-40.889056 60.799087l-142.30995-95.140549L320.69848 1004.855236a102.757138 102.757138 0 0 1-154.068895-111.843595l59.195594-240.523859-189.345727-160.34924a102.757138 102.757138 0 0 1 58.928346-180.660144L342.479251 293.973606l93.537057-229.433037a102.757138 102.757138 0 0 1 190.414722 0l93.537057 229.433037 247.205078 18.03929a102.757138 102.757138 0 0 1 58.794721 181.061016l-189.345727 160.34924 80.17462 326.043455a36.613076 36.613076 0 0 1-26.724874 44.229665 33.138843 33.138843 0 0 1-8.952832 0z" fill="#0060F7" p-id="6321"></path></svg>
