<?xml version="1.0" standalone="no"?><!DOCTYPE svg PUBLIC "-//W3C//DTD SVG 1.1//EN" "http://www.w3.org/Graphics/SVG/1.1/DTD/svg11.dtd"><svg class="icon" width="32px" height="32.00px" viewBox="0 0 1024 1024" version="1.1" xmlns="http://www.w3.org/2000/svg"><path fill="#1296db" d="M558.933333 605.866667c115.2-21.333333 204.8-123.733333 204.8-247.466667 0-140.8-110.933333-251.733333-251.733333-251.733333S260.266667 217.6 260.266667 358.4c0 123.733333 89.6 226.133333 204.8 247.466667-179.2 25.6-320 192-320 315.733333h733.866666c0-123.733333-140.8-290.133333-320-315.733333zM324.266667 358.4C324.266667 256 409.6 170.666667 512 170.666667s187.733333 85.333333 187.733333 187.733333-85.333333 187.733333-187.733333 187.733333-187.733333-85.333333-187.733333-187.733333zM298.666667 755.2c34.133333-34.133333 110.933333-89.6 213.333333-89.6s179.2 55.466667 213.333333 89.6c29.866667 29.866667 55.466667 64 72.533334 98.133333H226.133333c12.8-34.133333 38.4-68.266667 72.533334-98.133333z"  /></svg>