<?xml version="1.0" standalone="no"?><!DOCTYPE svg PUBLIC "-//W3C//DTD SVG 1.1//EN" "http://www.w3.org/Graphics/SVG/1.1/DTD/svg11.dtd"><svg class="icon" width="32px" height="32.00px" viewBox="0 0 1024 1024" version="1.1" xmlns="http://www.w3.org/2000/svg"><path fill="#cdcdcd" d="M580.266667 618.666667c17.066667 0 34.133333-12.8 34.133333-29.866667 0-17.066667-12.8-34.133333-29.866667-34.133333l-315.733333-8.533334c-17.066667 0-29.866667-12.8-34.133333-25.6l-34.133334-187.733333v-8.533333c0-12.8 4.266667-21.333333 12.8-25.6 8.533333-8.533333 17.066667-8.533333 25.6-8.533334h354.133334c17.066667 0 34.133333-12.8 34.133333-34.133333s-12.8-34.133333-34.133333-34.133333H234.666667c-25.6 0-51.2 8.533333-68.266667 29.866666-17.066667 17.066667-29.866667 42.666667-29.866667 72.533334v21.333333l34.133334 183.466667c8.533333 42.666667 46.933333 76.8 93.866666 76.8l315.733334 12.8z"  /><path fill="#cdcdcd" d="M904.533333 98.133333h-81.066666c-51.2 0-89.6 34.133333-102.4 81.066667L640 665.6c-4.266667 17.066667-17.066667 29.866667-34.133333 29.866667H251.733333c-17.066667 0-34.133333 12.8-34.133333 34.133333s12.8 34.133333 34.133333 34.133333h354.133334c46.933333 0 89.6-34.133333 98.133333-81.066666l81.066667-486.4c4.266667-17.066667 17.066667-29.866667 34.133333-29.866667h81.066667c17.066667 0 34.133333-12.8 34.133333-29.866667 4.266667-21.333333-12.8-38.4-29.866667-38.4z"  /><path fill="#cdcdcd" d="M268.8 870.4a55.466667 55.466667 0 1 0 110.933333 0 55.466667 55.466667 0 1 0-110.933333 0Z"  /><path fill="#cdcdcd" d="M618.666667 814.933333c-29.866667 0-55.466667 25.6-55.466667 55.466667s25.6 55.466667 55.466667 55.466667 55.466667-25.6 55.466666-55.466667-25.6-55.466667-55.466666-55.466667z"  /></svg>